<svg width="1200" height="800" viewBox="0 0 1200 800" fill="none" xmlns="http://www.w3.org/2000/svg">
  <rect width="1200" height="800" fill="#F8FAFC"/>
  <rect x="90" y="90" width="1020" height="620" rx="30" fill="#EEF2FF"/>
  <rect x="140" y="140" width="460" height="520" rx="22" fill="#C7D2FE"/>
  <rect x="620" y="140" width="440" height="250" rx="22" fill="#DDD6FE"/>
  <rect x="620" y="410" width="440" height="250" rx="22" fill="#C4B5FD"/>
  <rect x="200" y="220" width="340" height="80" rx="12" fill="#F8FAFC"/>
  <rect x="200" y="330" width="340" height="80" rx="12" fill="#F8FAFC"/>
  <rect x="200" y="440" width="240" height="80" rx="12" fill="#F8FAFC"/>
  <circle cx="830" cy="265" r="70" fill="#8B5CF6"/>
  <circle cx="830" cy="525" r="70" fill="#6D28D9"/>
  <rect x="910" y="220" width="110" height="28" rx="14" fill="#8B5CF6"/>
  <rect x="910" y="280" width="110" height="28" rx="14" fill="#8B5CF6"/>
  <rect x="910" y="480" width="110" height="28" rx="14" fill="#5B21B6"/>
  <rect x="910" y="540" width="110" height="28" rx="14" fill="#5B21B6"/>
</svg>
