<svg width="1200" height="800" viewBox="0 0 1200 800" fill="none" xmlns="http://www.w3.org/2000/svg">
  <rect width="1200" height="800" fill="#F6F4FF"/>
  <rect x="80" y="88" width="1040" height="624" rx="28" fill="#EDE9FE"/>
  <rect x="130" y="160" width="940" height="420" rx="24" fill="#C4B5FD"/>
  <rect x="200" y="250" width="800" height="300" rx="18" fill="#8B5CF6"/>
  <rect x="250" y="290" width="180" height="90" rx="10" fill="#F5F3FF"/>
  <rect x="450" y="290" width="180" height="90" rx="10" fill="#F5F3FF"/>
  <rect x="650" y="290" width="180" height="90" rx="10" fill="#F5F3FF"/>
  <rect x="850" y="290" width="100" height="90" rx="10" fill="#F5F3FF"/>
  <rect x="520" y="410" width="160" height="140" rx="14" fill="#6D28D9"/>
  <rect x="555" y="445" width="90" height="105" rx="10" fill="#A78BFA"/>
  <rect x="180" y="560" width="840" height="20" rx="10" fill="#DDD6FE"/>
  <circle cx="180" cy="170" r="48" fill="#A78BFA"/>
  <circle cx="1030" cy="610" r="56" fill="#DDD6FE"/>
</svg>
