<svg width="1200" height="800" viewBox="0 0 1200 800" fill="none" xmlns="http://www.w3.org/2000/svg">
  <rect width="1200" height="800" fill="#F8FAFC"/>
  <rect x="90" y="90" width="1020" height="620" rx="30" fill="#EEF2FF"/>
  <circle cx="600" cy="400" r="116" fill="#8B5CF6"/>
  <circle cx="310" cy="250" r="76" fill="#C4B5FD"/>
  <circle cx="890" cy="250" r="76" fill="#C4B5FD"/>
  <circle cx="260" cy="540" r="76" fill="#DDD6FE"/>
  <circle cx="940" cy="540" r="76" fill="#DDD6FE"/>
  <line x1="374" y1="286" x2="507" y2="356" stroke="#8B5CF6" stroke-width="12"/>
  <line x1="824" y1="286" x2="693" y2="356" stroke="#8B5CF6" stroke-width="12"/>
  <line x1="329" y1="505" x2="500" y2="440" stroke="#8B5CF6" stroke-width="12"/>
  <line x1="872" y1="505" x2="699" y2="441" stroke="#8B5CF6" stroke-width="12"/>
  <rect x="530" y="360" width="140" height="80" rx="16" fill="#F5F3FF"/>
  <rect x="325" y="223" width="36" height="54" rx="8" fill="#7C3AED"/>
  <rect x="874" y="223" width="36" height="54" rx="8" fill="#7C3AED"/>
  <rect x="243" y="513" width="36" height="54" rx="8" fill="#7C3AED"/>
  <rect x="923" y="513" width="36" height="54" rx="8" fill="#7C3AED"/>
</svg>
